<?xml version="1.0" encoding="UTF-8"?>
<svg version="1.1" xmlns="http://www.w3.org/2000/svg" width="1000" height="1000">
<path d="M0 0 C30.1373825 -1.04742878 57.06336283 10.91114642 79.2734375 30.52734375 C87.93246139 38.75543644 94.97149317 48.64390825 100.59765625 59.1640625 C100.59765625 59.8240625 100.59765625 60.4840625 100.59765625 61.1640625 C101.28085937 61.04289062 101.9640625 60.92171875 102.66796875 60.796875 C113.58637701 58.98179434 124.57421485 58.08725902 135.59765625 57.1640625 C137.69442064 68.89793563 138.74105898 80.74881242 139.88476562 92.60473633 C140.2242302 96.11785126 140.57071947 99.63022501 140.91796875 103.14257812 C141.13713436 105.38798031 141.3558987 107.6334217 141.57421875 109.87890625 C141.67731354 110.92271957 141.78040833 111.9665329 141.8866272 113.04197693 C142.33885015 117.76780159 142.73018758 122.40962753 142.59765625 127.1640625 C131.93192293 128.93025307 121.38561708 129.69927507 110.59765625 130.1640625 C110.52289063 130.7725 110.448125 131.3809375 110.37109375 132.0078125 C107.59712156 150.50096043 98.75413351 167.15163451 86.59765625 181.1640625 C85.9221875 181.98390625 85.24671875 182.80375 84.55078125 183.6484375 C67.7248738 203.42194917 41.45730741 216.8366939 15.59765625 219.1640625 C-14.57154523 221.09543574 -44.02412928 214.50619303 -67.46484375 194.5390625 C-69.47077137 192.77370203 -71.43746122 190.97587344 -73.40234375 189.1640625 C-74.39621094 188.29201172 -74.39621094 188.29201172 -75.41015625 187.40234375 C-85.41022963 178.16971787 -92.67657269 165.38330576 -98.40234375 153.1640625 C-98.40234375 152.5040625 -98.40234375 151.8440625 -98.40234375 151.1640625 C-108.63234375 152.1540625 -118.86234375 153.1440625 -129.40234375 154.1640625 C-131.36294422 138.57728874 -133.06336761 122.98562715 -134.58984375 107.3515625 C-134.68019897 106.43230988 -134.7705542 105.51305725 -134.86364746 104.56594849 C-135.12248487 101.92570682 -135.37828093 99.28519116 -135.6328125 96.64453125 C-135.71079575 95.84757843 -135.78877899 95.05062561 -135.86912537 94.22952271 C-136.19077022 90.8504254 -136.40234375 87.56236134 -136.40234375 84.1640625 C-132.42428096 83.65501487 -128.44474817 83.15848823 -124.46484375 82.6640625 C-123.34787109 82.52097656 -122.23089844 82.37789063 -121.08007812 82.23046875 C-114.79762198 81.4566765 -108.73172091 81.00297549 -102.40234375 81.1640625 C-102.06203125 79.3078125 -102.06203125 79.3078125 -101.71484375 77.4140625 C-96.2448712 53.2707354 -77.70120396 30.87852587 -57.13500977 17.56396484 C-39.51161555 6.63434285 -20.57384263 1.40504291 0 0 Z M-49.40234375 49.1640625 C-50.41296875 49.9271875 -51.42359375 50.6903125 -52.46484375 51.4765625 C-58.77852494 57.25290912 -64.49953817 64.50855925 -68.40234375 72.1640625 C-68.40234375 72.8240625 -68.40234375 73.4840625 -68.40234375 74.1640625 C-67.65984375 73.8134375 -66.91734375 73.4628125 -66.15234375 73.1015625 C-63.16480276 72.08308262 -62.3015332 72.2288401 -59.40234375 73.1640625 C-58.08234375 73.1640625 -56.76234375 73.1640625 -55.40234375 73.1640625 C-55.40234375 72.5040625 -55.40234375 71.8440625 -55.40234375 71.1640625 C-54.72429687 71.34710938 -54.04625 71.53015625 -53.34765625 71.71875 C-49.77922537 72.25827403 -46.83976838 71.8412005 -43.27734375 71.2890625 C-42.05789063 71.10601562 -40.8384375 70.92296875 -39.58203125 70.734375 C-36.39435152 70.24127423 -36.39435152 70.24127423 -33.40234375 69.1640625 C-31.4389416 68.93499892 -29.4755031 68.70623228 -27.51171875 68.48046875 C-25.14419748 68.17173008 -25.14419748 68.17173008 -21.90234375 67.1640625 C-17.25450493 65.83610855 -12.63697467 65.37932511 -7.84765625 64.91796875 C-3.63578954 64.51177982 0.4570558 64.05932746 4.59765625 63.1640625 C5.73203125 63.0196875 6.86640625 62.8753125 8.03515625 62.7265625 C11.51852646 62.29163546 11.51852646 62.29163546 14.375 61.16015625 C19.0075587 59.72827447 23.53621582 59.7150922 28.35546875 59.5078125 C31.40250973 59.18475273 32.94886324 58.52966245 35.59765625 57.1640625 C37.08265625 57.6590625 37.08265625 57.6590625 38.59765625 58.1640625 C42.20980223 58.63651917 45.82566527 59.05785093 49.4453125 59.46875 C52.59765625 60.1640625 52.59765625 60.1640625 54.59765625 63.1640625 C56.68712561 63.78290301 56.68712561 63.78290301 59.03515625 63.9140625 C59.81761719 63.99140625 60.60007812 64.06875 61.40625 64.1484375 C63.77818857 64.2833205 63.77818857 64.2833205 66.59765625 63.1640625 C62.91102844 51.77647882 49.76054609 43.51715699 39.59765625 38.1640625 C10.17813602 23.88694239 -24.56294142 27.59723802 -49.40234375 49.1640625 Z M72.22265625 140.0703125 C67.08489008 141.62050057 61.92105873 142.0841961 56.59765625 142.6640625 C54.35011 142.91925163 52.1027124 143.17575349 49.85546875 143.43359375 C48.7768457 143.55686035 47.69822266 143.68012695 46.58691406 143.80712891 C41.86150048 144.37136891 37.16422347 145.08135111 32.46484375 145.83203125 C29.59765625 146.1640625 29.59765625 146.1640625 25.91796875 146.15234375 C22.59560403 145.99092573 22.59560403 145.99092573 19.59765625 147.1640625 C17.89586631 147.2894093 16.19018493 147.36528639 14.484375 147.41015625 C13.48341797 147.44302734 12.48246094 147.47589844 11.45117188 147.50976562 C9.35231384 147.57062085 7.25335049 147.62795304 5.15429688 147.68164062 C-0.12667144 147.86117322 -4.40188142 148.3276447 -9.40234375 150.1640625 C-10.39234375 149.8340625 -11.38234375 149.5040625 -12.40234375 149.1640625 C-14.33150491 149.48121651 -14.33150491 149.48121651 -16.3984375 150.09765625 C-21.79730572 151.39849624 -26.93880426 151.35189535 -32.46484375 151.2265625 C-38.91308763 151.10739578 -45.01622476 151.24701316 -51.40234375 152.1640625 C-53.73433208 152.36760889 -56.06768733 152.55632714 -58.40234375 152.7265625 C-60.10390625 152.85224609 -60.10390625 152.85224609 -61.83984375 152.98046875 C-62.68546875 153.04105469 -63.53109375 153.10164062 -64.40234375 153.1640625 C-53.51415499 171.48808749 -35.50570993 183.20427878 -15.10546875 188.5859375 C5.98274749 193.09613404 26.97376596 189.36456235 45.4765625 178.46875 C47.95430236 176.80141332 50.2802317 175.04721669 52.59765625 173.1640625 C53.42652344 172.49761719 54.25539063 171.83117187 55.109375 171.14453125 C63.83634293 163.72727673 72.27903164 153.92807157 76.59765625 143.1640625 C76.59765625 141.8440625 76.59765625 140.5240625 76.59765625 139.1640625 C74.48541561 139.04522701 74.48541561 139.04522701 72.22265625 140.0703125 Z " fill="#EFC519" transform="translate(307.40234375,321.8359375)"/>
<path d="M0 0 C3.27728806 1.63562627 5.42620652 4.28757131 7.80859375 6.99609375 C8.33751221 7.58366455 8.86643066 8.17123535 9.41137695 8.77661133 C10.98847859 10.530985 12.55485001 12.29453016 14.12109375 14.05859375 C15.68287245 15.78841192 17.24529071 17.51765306 18.80859375 19.24609375 C20.24654159 20.849859 21.68404631 22.45402166 23.12109375 24.05859375 C24.62065994 25.72565075 26.12066428 27.3923137 27.62109375 29.05859375 C33.62109375 35.72526042 39.62109375 42.39192708 45.62109375 49.05859375 C46.36617188 49.88617188 47.11125 50.71375 47.87890625 51.56640625 C49.35401993 53.20599254 50.82801027 54.8465903 52.30078125 56.48828125 C56.42207143 61.07889985 60.56983163 65.64306482 64.74609375 70.18359375 C68.30362474 74.05227197 71.8039895 77.961935 75.24609375 81.93359375 C77.6665945 84.67682793 80.14310017 87.36743943 82.62109375 90.05859375 C85.65997393 93.35888298 88.6826542 96.66808658 91.62109375 100.05859375 C94.98432013 103.93676388 98.45445046 107.71387186 101.92919922 111.49169922 C106.36333003 116.31444266 110.74627615 121.18200495 115.12109375 126.05859375 C116.62080503 127.72552022 118.12080696 129.39218524 119.62109375 131.05859375 C128.62109375 141.05859375 128.62109375 141.05859375 137.62109375 151.05859375 C138.36617188 151.88617188 139.11125 152.71375 139.87890625 153.56640625 C141.35401993 155.20599254 142.82801027 156.8465903 144.30078125 158.48828125 C148.42207143 163.07889985 152.56983163 167.64306482 156.74609375 172.18359375 C160.30362474 176.05227197 163.8039895 179.961935 167.24609375 183.93359375 C169.6665945 186.67682793 172.14310017 189.36743943 174.62109375 192.05859375 C177.65997393 195.35888298 180.6826542 198.66808658 183.62109375 202.05859375 C186.52194937 205.40359951 189.4993377 208.67464715 192.49609375 211.93359375 C196.70421722 216.50989206 200.90005214 221.09561924 205.03515625 225.73828125 C206.4248742 227.28414729 207.83659174 228.81051709 209.26953125 230.31640625 C209.92179687 231.01507813 210.5740625 231.71375 211.24609375 232.43359375 C211.82617188 233.03945313 212.40625 233.6453125 213.00390625 234.26953125 C214.12109375 236.05859375 214.12109375 236.05859375 213.86914062 237.99682617 C212.56975081 241.57820575 209.35883177 243.63085241 206.49609375 245.99609375 C205.11828705 247.16121888 203.74068857 248.32659026 202.36328125 249.4921875 C201.65655273 250.08499512 200.94982422 250.67780273 200.22167969 251.28857422 C196.99129064 254.01060125 193.80742213 256.78526888 190.62109375 259.55859375 C189.37263778 260.64090415 188.12393895 261.72293447 186.875 262.8046875 C184.36107513 264.98333507 181.84815161 267.16313002 179.3359375 269.34375 C178.07688089 270.43626473 176.8177665 271.52871288 175.55859375 272.62109375 C174.94089111 273.15702148 174.32318848 273.69294922 173.68676758 274.24511719 C168.82599367 278.45791533 163.93728918 282.63737581 159.04541016 286.81396484 C155.62719092 289.74122298 152.26226207 292.71669056 148.93359375 295.74609375 C145.59882261 298.77572243 142.18821736 301.66467467 138.68359375 304.49609375 C133.90969075 308.35684512 129.38720947 312.4329645 124.87109375 316.58984375 C121.30925146 319.78740671 117.59543542 322.77247718 113.87109375 325.77734375 C110.08203968 328.92053633 106.48840023 332.2601797 102.8671875 335.59375 C100.20234209 337.98566672 97.4727755 340.25114259 94.68359375 342.49609375 C90.68885389 345.71802476 86.87555026 349.0651487 83.12109375 352.55859375 C78.51105039 356.84814488 73.74326419 360.86270047 68.8359375 364.8125 C66.0143588 367.14689965 63.31518663 369.57849973 60.62109375 372.05859375 C56.17382263 376.15210466 51.57391912 379.98301874 46.87109375 383.77734375 C43.08203968 386.92053633 39.48840023 390.2601797 35.8671875 393.59375 C33.20234209 395.98566672 30.4727755 398.25114259 27.68359375 400.49609375 C23.68884051 403.71803555 19.87566235 407.06525459 16.12109375 410.55859375 C11.45842791 414.89474449 6.65532677 418.99589258 1.69140625 422.98828125 C0.84320313 423.67148437 -0.005 424.3546875 -0.87890625 425.05859375 C-1.90625444 425.66881221 -2.93360264 426.27903067 -3.9920826 426.90774059 C-6.16280531 428.7457522 -6.81346633 429.76343823 -7.43593574 432.57097971 C-7.65556205 435.90772937 -7.67615266 439.19860821 -7.63839722 442.54255676 C-7.64760732 443.82498078 -7.65681742 445.10740479 -7.66630661 446.42869014 C-7.69105478 449.98640508 -7.6784824 453.54316143 -7.65984297 457.10087764 C-7.64626812 460.9379768 -7.66726314 464.77490439 -7.68406677 468.61196899 C-7.70844237 475.25925269 -7.7108989 481.90625503 -7.69848251 488.55356789 C-7.68056227 498.16441208 -7.69567625 507.77498076 -7.71886183 517.3858033 C-7.75558085 532.97849653 -7.76557121 548.57108785 -7.75878906 564.16381836 C-7.75225787 579.31098903 -7.75829226 594.45806868 -7.78125 609.60522461 C-7.78336598 611.00564861 -7.78336598 611.00564861 -7.78552471 612.434364 C-7.79267913 617.11802547 -7.80008083 621.8016865 -7.8076055 626.48534739 C-7.86971358 665.34311124 -7.88681253 704.20078572 -7.87890625 743.05859375 C-19.75890625 743.05859375 -31.63890625 743.05859375 -43.87890625 743.05859375 C-43.85772736 737.29513237 -43.85772736 737.29513237 -43.83612061 731.41523743 C-43.71211575 696.15284265 -43.64780236 660.89074159 -43.64830457 625.62812151 C-43.64831637 621.00330162 -43.64780595 616.37848192 -43.64697266 611.75366211 C-43.64681555 610.83297218 -43.64665844 609.91228225 -43.64649656 608.96369263 C-43.64271069 594.07017891 -43.59665262 579.17708222 -43.5348781 564.28370903 C-43.47240143 548.99333916 -43.45557059 533.70340639 -43.48081136 518.41292733 C-43.49494807 508.98306655 -43.47379428 499.55465713 -43.40700409 490.12501659 C-43.36457372 483.65225416 -43.36661885 477.18044087 -43.40305951 470.70764617 C-43.42276932 466.97654559 -43.42342597 463.2481114 -43.37106514 459.51726723 C-42.4641504 442.5281167 -42.4641504 442.5281167 -49.09322572 427.60094565 C-51.5333311 425.1614235 -54.11847275 423.13183139 -56.87890625 421.05859375 C-58.14652068 419.69758124 -59.38733861 418.30949595 -60.56640625 416.87109375 C-64.6044494 412.20730057 -68.74452133 407.63693946 -72.87890625 403.05859375 C-77.64924562 397.77600317 -82.39785032 392.4792524 -87.07421875 387.11328125 C-90.63528798 383.05890372 -94.26238665 379.06346445 -97.87890625 375.05859375 C-102.64924562 369.77600317 -107.39785032 364.4792524 -112.07421875 359.11328125 C-115.63528798 355.05890372 -119.26238665 351.06346445 -122.87890625 347.05859375 C-127.64924562 341.77600317 -132.39785032 336.4792524 -137.07421875 331.11328125 C-140.63528798 327.05890372 -144.26238665 323.06346445 -147.87890625 319.05859375 C-152.64924562 313.77600317 -157.39785032 308.4792524 -162.07421875 303.11328125 C-165.63528798 299.05890372 -169.26238665 295.06346445 -172.87890625 291.05859375 C-177.64924562 285.77600317 -182.39785032 280.4792524 -187.07421875 275.11328125 C-190.63528798 271.05890372 -194.26238665 267.06346445 -197.87890625 263.05859375 C-202.64924562 257.77600317 -207.39785032 252.4792524 -212.07421875 247.11328125 C-215.63528798 243.05890372 -219.26238665 239.06346445 -222.87890625 235.05859375 C-225.16645763 232.52539926 -227.45245839 229.99099873 -229.73046875 227.44921875 C-231.13276146 225.88884941 -232.54387163 224.33634671 -233.96484375 222.79296875 C-234.59648437 222.096875 -235.228125 221.40078125 -235.87890625 220.68359375 C-236.43578125 220.07773437 -236.99265625 219.471875 -237.56640625 218.84765625 C-239.04547952 216.83153851 -239.71598248 215.56169525 -239.87890625 213.05859375 C-238.7265625 211.3828125 -238.7265625 211.3828125 -236.94140625 209.74609375 C-236.28914063 209.13894531 -235.636875 208.53179687 -234.96484375 207.90625 C-234.27648437 207.29652344 -233.588125 206.68679688 -232.87890625 206.05859375 C-231.93917969 205.22134766 -231.93917969 205.22134766 -230.98046875 204.3671875 C-229.67214565 203.21639718 -228.35805178 202.07214326 -227.0390625 200.93359375 C-222.93219883 197.36886579 -218.91484049 193.70316467 -214.87890625 190.05859375 C-209.59631567 185.28825438 -204.2995649 180.53964968 -198.93359375 175.86328125 C-194.87921622 172.30221202 -190.88377695 168.67511335 -186.87890625 165.05859375 C-181.59631567 160.28825438 -176.2995649 155.53964968 -170.93359375 150.86328125 C-166.87921622 147.30221202 -162.88377695 143.67511335 -158.87890625 140.05859375 C-153.59631567 135.28825438 -148.2995649 130.53964968 -142.93359375 125.86328125 C-138.87921622 122.30221202 -134.88377695 118.67511335 -130.87890625 115.05859375 C-125.59631567 110.28825438 -120.2995649 105.53964968 -114.93359375 100.86328125 C-110.87921622 97.30221202 -106.88377695 93.67511335 -102.87890625 90.05859375 C-93.39018584 81.48999168 -93.39018584 81.48999168 -88.94140625 77.62109375 C-85.71331113 74.8103685 -82.54152182 71.94279475 -79.37890625 69.05859375 C-75.58956499 65.60283962 -71.76806927 62.19336485 -67.8984375 58.828125 C-63.85225536 55.28282421 -59.87147438 51.66400376 -55.87890625 48.05859375 C-50.59631567 43.28825438 -45.2995649 38.53964968 -39.93359375 33.86328125 C-35.87921622 30.30221202 -31.88377695 26.67511335 -27.87890625 23.05859375 C-16.95686162 13.19565648 -16.95686162 13.19565648 -11.82421875 8.76953125 C-10.44016868 7.5522342 -9.08327246 6.3037617 -7.74609375 5.03515625 C-6.69808594 4.05675781 -6.69808594 4.05675781 -5.62890625 3.05859375 C-4.69304687 2.16140625 -4.69304687 2.16140625 -3.73828125 1.24609375 C-1.87890625 0.05859375 -1.87890625 0.05859375 0 0 Z M-7.50390625 15.12109375 C-8.59831446 16.14261733 -9.69336641 17.16345168 -10.7890625 18.18359375 C-11.32160645 18.68117187 -11.85415039 19.17875 -12.40283203 19.69140625 C-14.21741082 21.37212759 -16.07070923 23.00319362 -17.94140625 24.62109375 C-21.13135234 27.38659795 -24.25983614 30.21335147 -27.37890625 33.05859375 C-31.16824751 36.51434788 -34.98974323 39.92382265 -38.859375 43.2890625 C-42.90555714 46.83436329 -46.88633812 50.45318374 -50.87890625 54.05859375 C-56.16149683 58.82893312 -61.4582476 63.57753782 -66.82421875 68.25390625 C-70.87859628 71.81497548 -74.87403555 75.44207415 -78.87890625 79.05859375 C-88.36762666 87.62719582 -88.36762666 87.62719582 -92.81640625 91.49609375 C-96.04450137 94.306819 -99.21629068 97.17439275 -102.37890625 100.05859375 C-106.16824751 103.51434788 -109.98974323 106.92382265 -113.859375 110.2890625 C-117.90555714 113.83436329 -121.88633812 117.45318374 -125.87890625 121.05859375 C-131.16149683 125.82893312 -136.4582476 130.57753782 -141.82421875 135.25390625 C-145.87859628 138.81497548 -149.87403555 142.44207415 -153.87890625 146.05859375 C-159.16149683 150.82893312 -164.4582476 155.57753782 -169.82421875 160.25390625 C-173.87859628 163.81497548 -177.87403555 167.44207415 -181.87890625 171.05859375 C-187.16149683 175.82893312 -192.4582476 180.57753782 -197.82421875 185.25390625 C-201.87859628 188.81497548 -205.87403555 192.44207415 -209.87890625 196.05859375 C-211.58673724 197.60081689 -213.29506429 199.14249088 -215.00390625 200.68359375 C-215.82117188 201.42222656 -216.6384375 202.16085937 -217.48046875 202.921875 C-220.36557368 205.49215578 -223.31186815 207.98553959 -226.28515625 210.453125 C-228.01698476 212.19768755 -228.83324409 213.85243939 -229.87890625 216.05859375 C-229.4914624 216.47109375 -229.10401855 216.88359375 -228.70483398 217.30859375 C-215.55102145 231.32472698 -215.55102145 231.32472698 -210.515625 237.171875 C-208.50016853 239.49518162 -206.44042163 241.7760784 -204.37890625 244.05859375 C-201.70842281 247.01729126 -199.05592567 249.98785847 -196.44140625 252.99609375 C-193.630681 256.22418887 -190.76310725 259.39597818 -187.87890625 262.55859375 C-184.42315212 266.34793501 -181.01367735 270.16943073 -177.6484375 274.0390625 C-174.10313671 278.08524464 -170.48431626 282.06602562 -166.87890625 286.05859375 C-162.10856688 291.34118433 -157.35996218 296.6379351 -152.68359375 302.00390625 C-149.12252452 306.05828378 -145.49542585 310.05372305 -141.87890625 314.05859375 C-137.10856688 319.34118433 -132.35996218 324.6379351 -127.68359375 330.00390625 C-124.12252452 334.05828378 -120.49542585 338.05372305 -116.87890625 342.05859375 C-112.10856688 347.34118433 -107.35996218 352.6379351 -102.68359375 358.00390625 C-99.12252452 362.05828378 -95.49542585 366.05372305 -91.87890625 370.05859375 C-87.10856688 375.34118433 -82.35996218 380.6379351 -77.68359375 386.00390625 C-74.12252452 390.05828378 -70.49542585 394.05372305 -66.87890625 398.05859375 C-58.31370563 407.54354745 -58.31370563 407.54354745 -54.37890625 412.05859375 C-53.84531494 412.65212646 -53.31172363 413.24565918 -52.76196289 413.85717773 C-50.87890625 416.05859375 -50.87890625 416.05859375 -49.0715332 418.59057617 C-45.99440608 422.61233401 -43.56868326 425.54620975 -38.62451172 427.04541016 C-34.88518178 427.44235679 -31.32443645 427.49629734 -27.56640625 427.37109375 C-26.26783691 427.34781006 -24.96926758 427.32452637 -23.63134766 427.30053711 C-16.51894447 426.9409111 -10.81877535 426.42929286 -5.75390625 421.12109375 C-4.09783555 419.12564338 -2.47112628 417.10535405 -0.87890625 415.05859375 C0.93237384 413.48692824 2.78711538 411.96382597 4.68359375 410.49609375 C8.44947564 407.46501808 12.06439131 404.33277798 15.62109375 401.05859375 C20.06836487 396.96508284 24.66826838 393.13416876 29.37109375 389.33984375 C33.16014782 386.19665117 36.75378727 382.8570078 40.375 379.5234375 C43.03984541 377.13152078 45.769412 374.86604491 48.55859375 372.62109375 C52.55333361 369.39916274 56.36663724 366.0520388 60.12109375 362.55859375 C64.73113711 358.26904262 69.49892331 354.25448703 74.40625 350.3046875 C77.2278287 347.97028785 79.92700087 345.53868777 82.62109375 343.05859375 C87.06836487 338.96508284 91.66826838 335.13416876 96.37109375 331.33984375 C99.20208953 328.99140407 101.91492973 326.54949473 104.62109375 324.05859375 C109.06836487 319.96508284 113.66826838 316.13416876 118.37109375 312.33984375 C122.16014782 309.19665117 125.75378727 305.8570078 129.375 302.5234375 C132.03984541 300.13152078 134.769412 297.86604491 137.55859375 295.62109375 C141.55333361 292.39916274 145.36663724 289.0520388 149.12109375 285.55859375 C153.73113711 281.26904262 158.49892331 277.25448703 163.40625 273.3046875 C166.2278287 270.97028785 168.92700087 268.53868777 171.62109375 266.05859375 C176.06086422 261.97198684 180.65222965 258.14666036 185.34765625 254.359375 C189.22453586 251.14320304 192.91956853 247.74388802 196.61328125 244.3203125 C199.04389249 242.12821919 201.54478623 240.07623961 204.12109375 238.05859375 C202.50496962 234.1350554 199.80779328 231.34461149 196.93359375 228.30859375 C195.92899073 227.23111797 194.92508322 226.1529933 193.921875 225.07421875 C193.4367041 224.55408203 192.9515332 224.03394531 192.45166016 223.49804688 C190.8044754 221.71606498 189.20694969 219.89525415 187.62109375 218.05859375 C184.21364456 214.12692161 180.68979702 210.30498131 177.16577148 206.47827148 C174.63369259 203.72385947 172.13074107 200.95116876 169.68359375 198.12109375 C166.57145251 194.52900784 163.35237289 191.04307383 160.12109375 187.55859375 C156.33477687 183.47558353 152.60342326 179.36089658 148.9609375 175.1484375 C146.55439219 172.41488816 144.08806179 169.73745369 141.62109375 167.05859375 C138.58219198 163.75832499 135.55953275 160.44910028 132.62109375 157.05859375 C129.25786737 153.18042362 125.78773704 149.40331564 122.31298828 145.62548828 C117.87885747 140.80274484 113.49591135 135.93518255 109.12109375 131.05859375 C107.62138247 129.39166728 106.12138054 127.72500226 104.62109375 126.05859375 C98.62109375 119.39192708 92.62109375 112.72526042 86.62109375 106.05859375 C85.87601562 105.23101562 85.1309375 104.4034375 84.36328125 103.55078125 C82.88816757 101.91119496 81.41417723 100.2705972 79.94140625 98.62890625 C75.82011607 94.03828765 71.67235587 89.47412268 67.49609375 84.93359375 C63.93856276 81.06491553 60.438198 77.1552525 56.99609375 73.18359375 C54.575593 70.44035957 52.09908733 67.74974807 49.62109375 65.05859375 C46.58221357 61.75830452 43.5595333 58.44910092 40.62109375 55.05859375 C37.25786737 51.18042362 33.78773704 47.40331564 30.31298828 43.62548828 C25.87885308 38.80274007 21.49635971 33.93478462 17.12109375 29.05859375 C14.85922957 26.54842887 12.59700203 24.03861238 10.33203125 21.53125 C8.82288307 19.84345707 7.32864648 18.14224149 5.84765625 16.4296875 C4.77644531 15.19412109 4.77644531 15.19412109 3.68359375 13.93359375 C2.72646484 12.81597656 2.72646484 12.81597656 1.75 11.67578125 C-1.98076929 7.97185203 -4.57152937 12.34004211 -7.50390625 15.12109375 Z " fill="#23211E" transform="translate(323.87890625,201.94140625)"/>
<path d="M0 0 C-2.3567049 19.17870196 -11.45769287 36.54283682 -24 51 C-25.01320313 52.22976563 -25.01320313 52.22976563 -26.046875 53.484375 C-42.87278245 73.25788667 -69.14034884 86.6726314 -95 89 C-125.16920148 90.93137324 -154.62178553 84.34213053 -178.0625 64.375 C-180.06842762 62.60963953 -182.03511747 60.81181094 -184 59 C-184.66257813 58.41863281 -185.32515625 57.83726562 -186.0078125 57.23828125 C-194.22378187 49.65283976 -200.36363917 39.59263794 -205.625 29.8125 C-205.96781006 29.17699219 -206.31062012 28.54148437 -206.66381836 27.88671875 C-208.13719812 25.05120113 -209 23.24231468 -209 20 C-205.35224523 19.3465761 -201.70132228 18.80461899 -198.02832031 18.31396484 C-195.91917615 17.98748923 -193.85804839 17.53812924 -191.7734375 17.08203125 C-187.42147438 16.28638421 -183.28239056 15.58828056 -179 17 C-174.28763656 20.67897287 -171.30705519 26.04254956 -168.22119141 31.07421875 C-159.47628446 44.86466776 -140.91793381 53.40815243 -125.703125 57.421875 C-104.61490876 61.93207154 -83.62389029 58.20049985 -65.12109375 47.3046875 C-62.6439603 45.63775888 -60.31909973 43.87981633 -58 42 C-56.77410156 41.03513672 -56.77410156 41.03513672 -55.5234375 40.05078125 C-44.42949957 30.76003756 -37.6275812 19.37941282 -32.27734375 6.10546875 C-31 3 -31 3 -30 2 C-27.22673552 1.58925704 -24.47313607 1.23905811 -21.6875 0.9375 C-20.87748535 0.84807129 -20.0674707 0.75864258 -19.23291016 0.66650391 C-12.80755801 -0.00214027 -6.46008085 -0.22800285 0 0 Z " fill="#231F20" transform="translate(418,452)"/>
<path d="M0 0 C30.1373825 -1.04742878 57.06336283 10.91114642 79.2734375 30.52734375 C87.8932497 38.71817618 95.07432474 48.63442367 100.59765625 59.1640625 C100.59765625 60.1540625 100.59765625 61.1440625 100.59765625 62.1640625 C95.07835384 62.81682055 89.55941272 63.39789118 84.02539062 63.91064453 C81.96341386 64.12588306 79.91107442 64.43045775 77.86328125 64.75390625 C73.81890631 65.1928689 70.46066255 65.55426928 67.04882812 63.00830078 C63.70831722 59.87160703 60.85731242 56.33156213 57.96923828 52.78369141 C47.81701732 40.79546893 29.9479013 32.9755235 14.59765625 31.1640625 C-8.20141907 29.38369197 -29.61491556 33.50943843 -47.5078125 48.5234375 C-48.13300781 49.06484375 -48.75820313 49.60625 -49.40234375 50.1640625 C-50.22863281 50.80214844 -51.05492187 51.44023437 -51.90625 52.09765625 C-54.31060505 54.08811606 -56.19367657 56.05333964 -58.15234375 58.4765625 C-58.85875 59.33894531 -59.56515625 60.20132813 -60.29296875 61.08984375 C-61.96688799 63.52942606 -62.98905828 65.40085613 -64.07421875 68.08203125 C-67.61597898 76.3029223 -67.61597898 76.3029223 -71.40234375 79.1640625 C-79.0735752 81.67705211 -87.41707283 81.32539579 -95.40234375 81.1640625 C-96.81640529 81.16196092 -98.2304782 81.16263672 -99.64453125 81.16796875 C-101.00964844 81.16603516 -101.00964844 81.16603516 -102.40234375 81.1640625 C-97.95294187 56.89459773 -80.9261628 34.18549889 -60.90209961 20.04931641 C-42.38142534 7.59929419 -22.16024014 1.51338225 0 0 Z " fill="#231F20" transform="translate(307.40234375,321.8359375)"/>
<path d="M0 0 C0.625 1.875 0.625 1.875 1 4 C-1 6 -1 6 -2.9453125 6.1953125 C-4.96354167 6.13020833 -6.98177083 6.06510417 -9 6 C-9 8.97 -9 11.94 -9 15 C-6.03 15 -3.06 15 0 15 C0.38218767 16.65614657 0.71395102 18.32457024 1 20 C0 21 0 21 -1.84765625 21.09765625 C-3.8984375 21.06510417 -5.94921875 21.03255208 -8 21 C-8 24.63 -8 28.26 -8 32 C-4.37 31.67 -0.74 31.34 3 31 C3.11504629 23.06180611 2.7871337 15.20603353 2.26782227 7.2878418 C2.14089372 5.19383751 2.065658 3.09681993 2 1 C3.86585954 -0.86585954 6.81236371 -0.25966063 9.3125 -0.3125 C10.46363281 -0.34988281 11.61476562 -0.38726562 12.80078125 -0.42578125 C16.59957723 0.07979721 17.68426791 1.0234235 20 4 C21.45762514 7.5225941 21.26362587 11.24333137 21 15 C20.17628906 16.175625 20.17628906 16.175625 19.3359375 17.375 C17.6398534 19.95775165 17.6398534 19.95775165 18.8359375 22.75390625 C19.59777344 24.14416016 19.59777344 24.14416016 20.375 25.5625 C23.06632929 30.53800877 23.06632929 30.53800877 22.6640625 33.33984375 C22.33535156 34.16162109 22.33535156 34.16162109 22 35 C20.68 35 19.36 35 18 35 C16.99515796 33.04414675 15.99626195 31.08523763 15 29.125 C14.443125 28.03445313 13.88625 26.94390625 13.3125 25.8203125 C12 23 12 23 12 21 C11.01 21 10.02 21 9 21 C9.495 28.425 9.495 28.425 10 36 C2.91760966 37.77059758 -4.71236044 37 -12 37 C-12.66 35.68 -13.32 34.36 -14 33 C-14.61875 33.804375 -15.2375 34.60875 -15.875 35.4375 C-18 38 -18 38 -20 39 C-27.1550747 39.57702215 -27.1550747 39.57702215 -30.5625 37.25 C-32 35 -32 35 -31.75 32.75 C-31.5025 32.1725 -31.255 31.595 -31 31 C-28.94696077 31.51325981 -26.90563418 32.02775465 -24.875 32.625 C-22.91960301 33.2156101 -22.91960301 33.2156101 -21 32 C-20.54923761 29.69356217 -20.54923761 29.69356217 -21 27 C-23.34223007 24.56599 -23.34223007 24.56599 -26.375 22.4375 C-31.0556961 18.94814386 -33.56750129 16.90391994 -34.4375 11.0625 C-33.85392911 6.97750377 -32.07542999 5.62536706 -29 3 C-28.67 2.67 -28.34 2.34 -28 2 C-24.56117575 1.68737961 -22.3333683 1.8623044 -19.125 3.1875 C-18.073125 4.0846875 -18.073125 4.0846875 -17 5 C-17 6.65 -17 8.3 -17 10 C-20.3 9.67 -23.6 9.34 -27 9 C-27.5870853 13.90945265 -27.5870853 13.90945265 -24.8828125 16.1328125 C-23.51769531 17.11894531 -23.51769531 17.11894531 -22.125 18.125 C-19.06653545 20.36438857 -17.11852259 21.82221612 -15 25 C-15.00785522 23.9627478 -15.00785522 23.9627478 -15.01586914 22.90454102 C-15.036575 19.79053648 -15.04963963 16.67654639 -15.0625 13.5625 C-15.07087891 12.47388672 -15.07925781 11.38527344 -15.08789062 10.26367188 C-15.09272461 8.71196289 -15.09272461 8.71196289 -15.09765625 7.12890625 C-15.10551147 5.69140015 -15.10551147 5.69140015 -15.11352539 4.22485352 C-15 2 -15 2 -14 1 C-9.37776522 0.22644418 -4.68490867 -0.15112609 0 0 Z " fill="#322B23" transform="translate(220,417)"/>
<path d="M0 0 C0.625 1.875 0.625 1.875 1 4 C-1 6 -1 6 -2.9453125 6.1953125 C-4.96354167 6.13020833 -6.98177083 6.06510417 -9 6 C-9 8.97 -9 11.94 -9 15 C-6.03 15 -3.06 15 0 15 C0.38218767 16.65614657 0.71395102 18.32457024 1 20 C0 21 0 21 -1.84765625 21.09765625 C-3.8984375 21.06510417 -5.94921875 21.03255208 -8 21 C-8 24.63 -8 28.26 -8 32 C-4.37 31.67 -0.74 31.34 3 31 C3.495 32.98 3.495 32.98 4 35 C2 37 2 37 -1.1875 37.265625 C-3.0746875 37.25789063 -3.0746875 37.25789063 -5 37.25 C-6.258125 37.25515625 -7.51625 37.2603125 -8.8125 37.265625 C-12 37 -12 37 -14 35 C-14.680625 35.66 -15.36125 36.32 -16.0625 37 C-19.74874118 39.50978123 -21.61738151 39.62608836 -26 39 C-29.38939556 36.86320715 -30.72582557 35.8225233 -32 32 C-32.50371278 27.67801994 -32.7431478 23.34270472 -33 19 C-33.09023438 17.89527344 -33.18046875 16.79054688 -33.2734375 15.65234375 C-33.66660373 8.09793555 -33.66660373 8.09793555 -31.87109375 5.140625 C-29.44019512 2.8810952 -27.16294521 2.02992871 -23.9375 1.4375 C-20.36277612 2.12202159 -18.62267582 3.53159923 -16 6 C-15.34 4.35 -14.68 2.7 -14 1 C-4.58997722 -0.14806378 -4.58997722 -0.14806378 0 0 Z " fill="#E9C01B" transform="translate(305,409)"/>
<path d="M0 0 C2.69990662 1.79993774 4.5418865 3.083773 6 6 C9.78263276 28.08836649 9.78263276 28.08836649 6.125 34.0625 C3.38999766 36.5561786 2.41848181 36.9526247 -1.3125 37.375 C-5 37 -5 37 -7.875 34.625 C-12.16888319 29.32079135 -11.6121347 23.62244091 -12 17 C-12.09023438 15.89398438 -12.18046875 14.78796875 -12.2734375 13.6484375 C-12.66686551 6.09836672 -12.66686551 6.09836672 -10.87109375 3.140625 C-7.52198415 0.02761451 -4.40561755 -0.84362889 0 0 Z " fill="#2D2723" transform="translate(404,400)"/>
<path d="M0 0 C0.625 1.875 0.625 1.875 1 4 C0.34 4.66 -0.32 5.32 -1 6 C-2.32 6 -3.64 6 -5 6 C-4.34 15.9 -3.68 25.8 -3 36 C-5.475 36.495 -5.475 36.495 -8 37 C-9.528829 26.66927199 -10.47932209 16.42726018 -11 6 C-13.31 6 -15.62 6 -18 6 C-18 6.99 -18 7.98 -18 9 C-21.3 8.67 -24.6 8.34 -28 8 C-28 9.65 -28 11.3 -28 13 C-25.91988974 15.17254587 -25.91988974 15.17254587 -23.1875 17 C-19.4480771 19.67641235 -17.05110525 21.84451405 -15 26 C-14.42354457 29.95283726 -14.64051539 31.46077309 -16.875 34.8125 C-19.81196533 37.83584667 -20.55257098 37.96391701 -24.875 38.3125 C-28.01718044 38.27243577 -28.86089252 38.09500023 -31.5625 36.25 C-33 34 -33 34 -32.75 31.75 C-32.5025 31.1725 -32.255 30.595 -32 30 C-29.94696077 30.51325981 -27.90563418 31.02775465 -25.875 31.625 C-23.91960301 32.2156101 -23.91960301 32.2156101 -22 31 C-21.54923761 28.69356217 -21.54923761 28.69356217 -22 26 C-24.34223007 23.56599 -24.34223007 23.56599 -27.375 21.4375 C-32.0556961 17.94814386 -34.56750129 15.90391994 -35.4375 10.0625 C-34.85392911 5.97750377 -33.07542999 4.62536706 -30 2 C-29.67 1.67 -29.34 1.34 -29 1 C-25.14382241 0.8247192 -21.76536816 1.24692637 -18 2 C-17.67 1.67 -17.34 1.34 -17 1 C-11.37339744 0.22358636 -5.67842778 -0.15347102 0 0 Z " fill="#302923" transform="translate(349,406)"/>
<path d="M0 0 C3.27275026 0 5.846632 0.29925156 9 1 C9.43046104 5.1805857 9.85760419 9.36149341 10.28173828 13.54272461 C10.42634448 14.96371509 10.57184104 16.38461526 10.71826172 17.80541992 C10.92912811 19.85311903 11.13674139 21.90112649 11.34375 23.94921875 C11.46943359 25.17987061 11.59511719 26.41052246 11.72460938 27.6784668 C11.95657666 30.47626373 12.05585531 33.1955979 12 36 C10.125 36.625 10.125 36.625 8 37 C5.3498535 34.3498535 5.63353949 32.8556488 5.40234375 29.15234375 C5.32306641 27.99025391 5.24378906 26.82816406 5.16210938 25.63085938 C5.08798828 24.41205078 5.01386719 23.19324219 4.9375 21.9375 C4.78391811 19.52969139 4.62657626 17.12211862 4.46484375 14.71484375 C4.399021 13.64355225 4.33319824 12.57226074 4.26538086 11.46850586 C4.26739814 9.05824067 4.26739814 9.05824067 3 8 C2.88930176 8.69561035 2.77860352 9.3912207 2.66455078 10.10791016 C2.15656074 13.28112996 1.64085355 16.45304944 1.125 19.625 C0.86396484 21.26662109 0.86396484 21.26662109 0.59765625 22.94140625 C-0.25033516 28.12357597 -1.08439291 33.08154936 -3 38 C-4.32 38 -5.64 38 -7 38 C-7.31453125 37.16597656 -7.6290625 36.33195312 -7.953125 35.47265625 C-10.88222696 27.76562791 -10.88222696 27.76562791 -14.125 20.1875 C-19.49581887 8.28873462 -19.49581887 8.28873462 -19 3 C-17.68 2.67 -16.36 2.34 -15 2 C-7 17.42857143 -7 17.42857143 -7 24 C-6.34 24 -5.68 24 -5 24 C-5.061875 22.96875 -5.12375 21.9375 -5.1875 20.875 C-5.19899916 14.48146782 -3.75211474 8.12436437 -2 2 C-1.34 1.34 -0.68 0.68 0 0 Z " fill="#2F2923" transform="translate(259,413)"/>
<path d="M0 0 C2.0625 0.4375 2.0625 0.4375 4 1 C6.55218887 12.52201772 6.63263152 24.25018212 7 36 C5.02 36.495 5.02 36.495 3 37 C1.91267356 35.48201899 0.83036118 33.96044611 -0.25 32.4375 C-1.15492188 31.16712891 -1.15492188 31.16712891 -2.078125 29.87109375 C-4.21254461 26.68247908 -6.09628634 23.3314989 -8 20 C-8 25.94 -8 31.88 -8 38 C-9.98 38.495 -9.98 38.495 -12 39 C-14.59620897 36.40379103 -14.37283631 35.0558334 -14.6328125 31.43359375 C-14.71660156 30.30759766 -14.80039062 29.18160156 -14.88671875 28.02148438 C-14.96535156 26.83876953 -15.04398437 25.65605469 -15.125 24.4375 C-15.21136719 23.28185547 -15.29773438 22.12621094 -15.38671875 20.93554688 C-15.83954999 14.60669126 -16.09479227 8.34431103 -16 2 C-13.83203125 1.99609375 -13.83203125 1.99609375 -11 3 C-8.88442033 5.47978073 -7.31189026 8.24448371 -5.6875 11.0625 C-5.23310547 11.82111328 -4.77871094 12.57972656 -4.31054688 13.36132812 C-3.19235396 15.23282995 -2.08984109 17.11189393 -1 19 C-1.01160156 17.71222656 -1.02320313 16.42445313 -1.03515625 15.09765625 C-1.0445327 13.41927228 -1.05363305 11.74088674 -1.0625 10.0625 C-1.07087891 9.21236328 -1.07925781 8.36222656 -1.08789062 7.48632812 C-1.09111328 6.67744141 -1.09433594 5.86855469 -1.09765625 5.03515625 C-1.10289307 4.2862915 -1.10812988 3.53742676 -1.11352539 2.76586914 C-1 1 -1 1 0 0 Z " fill="#2F2923" transform="translate(428,397)"/>
<path d="M0 0 C1.15113281 -0.03738281 2.30226562 -0.07476562 3.48828125 -0.11328125 C7.28707723 0.39229721 8.37176791 1.3359235 10.6875 4.3125 C12.14512514 7.8350941 11.95112587 11.55583137 11.6875 15.3125 C10.86378906 16.488125 10.86378906 16.488125 10.0234375 17.6875 C8.3273534 20.27025165 8.3273534 20.27025165 9.5234375 23.06640625 C10.03132813 23.99324219 10.53921875 24.92007812 11.0625 25.875 C13.75382929 30.85050877 13.75382929 30.85050877 13.3515625 33.65234375 C13.13242188 34.20019531 12.91328125 34.74804688 12.6875 35.3125 C11.3675 35.3125 10.0475 35.3125 8.6875 35.3125 C7.68265796 33.35664675 6.68376195 31.39773763 5.6875 29.4375 C5.130625 28.34695313 4.57375 27.25640625 4 26.1328125 C2.6875 23.3125 2.6875 23.3125 2.6875 21.3125 C1.6975 21.3125 0.7075 21.3125 -0.3125 21.3125 C0.0175 26.2625 0.3475 31.2125 0.6875 36.3125 C-1.2925 36.8075 -1.2925 36.8075 -3.3125 37.3125 C-5.53314425 31.77021981 -5.95656062 26.32703632 -6.4375 20.4375 C-6.52386719 19.48230469 -6.61023438 18.52710938 -6.69921875 17.54296875 C-7.16823027 12.1158355 -7.50207832 6.75971699 -7.3125 1.3125 C-5.44664046 -0.55335954 -2.50013629 0.05283937 0 0 Z " fill="#2C2622" transform="translate(229.3125,416.6875)"/>
<path d="M0 0 C1.85546875 0.19140625 1.85546875 0.19140625 4 1 C5.23828125 3.08984375 5.23828125 3.08984375 6.3125 5.9375 C6.72371094 7.01 7.13492187 8.0825 7.55859375 9.1875 C7.78272949 9.78820312 8.00686523 10.38890625 8.23779297 11.0078125 C9.08849553 13.23130158 9.99593427 15.42689042 10.91015625 17.625 C11.56566936 19.22893579 12.22061947 20.8331018 12.875 22.4375 C13.19766846 23.20634521 13.52033691 23.97519043 13.8527832 24.76733398 C15.48979745 28.86953081 16.5460593 31.63107962 15 36 C13.68 36 12.36 36 11 36 C10.34 33.69 9.68 31.38 9 29 C8.34 29.33 7.68 29.66 7 30 C4.6670134 30.04022391 2.33293334 30.04320247 0 30 C-0.66 32.31 -1.32 34.62 -2 37 C-3.9375 37.5625 -3.9375 37.5625 -6 38 C-6.33 37.67 -6.66 37.34 -7 37 C-6.73935055 34.30984029 -6.39727809 31.67175926 -6 29 C-5.85836426 28.03126953 -5.71672852 27.06253906 -5.57080078 26.06445312 C-5.08273683 22.79054632 -4.57454522 19.52023674 -4.0625 16.25 C-3.89298828 15.12722656 -3.72347656 14.00445312 -3.54882812 12.84765625 C-3.37931641 11.76871094 -3.20980469 10.68976563 -3.03515625 9.578125 C-2.8844165 8.60262695 -2.73367676 7.62712891 -2.57836914 6.62207031 C-2.02684918 4.12172234 -1.25619935 2.21794111 0 0 Z " fill="#312B23" transform="translate(355,404)"/>
<path d="M0 0 C0.625 1.875 0.625 1.875 1 4 C-1 6 -1 6 -2.9453125 6.1953125 C-4.96354167 6.13020833 -6.98177083 6.06510417 -9 6 C-9 8.97 -9 11.94 -9 15 C-6.03 15 -3.06 15 0 15 C0.38218767 16.65614657 0.71395102 18.32457024 1 20 C0 21 0 21 -1.84765625 21.09765625 C-3.8984375 21.06510417 -5.94921875 21.03255208 -8 21 C-8 24.63 -8 28.26 -8 32 C-4.37 31.67 -0.74 31.34 3 31 C3.33 32.32 3.66 33.64 4 35 C2 37 2 37 -1.22265625 37.23046875 C-2.48980469 37.21628906 -3.75695312 37.20210938 -5.0625 37.1875 C-6.33222656 37.18105469 -7.60195313 37.17460937 -8.91015625 37.16796875 C-12 37 -12 37 -13 36 C-13.22897901 34.17099014 -13.39540483 32.3340758 -13.53515625 30.49609375 C-13.62216797 29.36236328 -13.70917969 28.22863281 -13.79882812 27.06054688 C-13.88583984 25.86494141 -13.97285156 24.66933594 -14.0625 23.4375 C-14.15337891 22.26896484 -14.24425781 21.10042969 -14.33789062 19.89648438 C-14.78605188 13.92212419 -15.22513043 7.99137435 -15 2 C-12.08965938 -0.91034062 -3.88114219 -0.12519814 0 0 Z " fill="#2F2923" transform="translate(305,409)"/>
<path d="M0 0 C2.875 2 2.875 2 5 4 C4.67 5.32 4.34 6.64 4 8 C3.36191406 7.91621094 2.72382813 7.83242188 2.06640625 7.74609375 C1.24011719 7.64425781 0.41382813 7.54242188 -0.4375 7.4375 C-1.26121094 7.33308594 -2.08492188 7.22867187 -2.93359375 7.12109375 C-3.61550781 7.08113281 -4.29742187 7.04117187 -5 7 C-6.44931132 8.22133095 -6.44931132 8.22133095 -6.125 11.875 C-6.34729989 21.92456311 -6.34729989 21.92456311 -3 31 C-0.13275314 30.42655063 0.8614515 30.1385485 3 28 C5.125 28.375 5.125 28.375 7 29 C6.68306247 31.93167219 6.36774166 33.58982661 4.375 35.8125 C1.01623433 37.49188284 -1.28977771 37.45564133 -5 37 C-8.38939556 34.86320715 -9.72582557 33.8225233 -11 30 C-11.50371278 25.67801994 -11.7431478 21.34270472 -12 17 C-12.09023438 15.89527344 -12.18046875 14.79054688 -12.2734375 13.65234375 C-12.66660373 6.09793555 -12.66660373 6.09793555 -10.87109375 3.140625 C-7.52198415 0.02761451 -4.40561755 -0.84362889 0 0 Z " fill="#2D2723" transform="translate(284,411)"/>
<path d="M0 0 C0.625 1.875 0.625 1.875 1 4 C0.34 4.66 -0.32 5.32 -1 6 C-2.32 6 -3.64 6 -5 6 C-4.34 15.9 -3.68 25.8 -3 36 C-5.475 36.495 -5.475 36.495 -8 37 C-9.528829 26.66927199 -10.47932209 16.42726018 -11 6 C-13.31 6 -15.62 6 -18 6 C-17.67 4.35 -17.34 2.7 -17 1 C-5.47835991 -0.14806378 -5.47835991 -0.14806378 0 0 Z " fill="#2E2823" transform="translate(382,402)"/>
<path d="M0 0 C4.55555556 0.55555556 4.55555556 0.55555556 6 2 C7.2730416 9.2139024 7.56527074 16.69938465 7 24 C6.34 24.66 5.68 25.32 5 26 C3 25.8125 3 25.8125 1 25 C-3.14538959 18.78191562 -2.34786467 9.30515804 -2 2 C-1.34 1.34 -0.68 0.68 0 0 Z " fill="#E7BE1C" transform="translate(399,406)"/>
<path d="M0 0 C2.475 0.495 2.475 0.495 5 1 C5.43046104 5.1805857 5.85760419 9.36149341 6.28173828 13.54272461 C6.42634448 14.96371509 6.57184104 16.38461526 6.71826172 17.80541992 C6.92912811 19.85311903 7.13674139 21.90112649 7.34375 23.94921875 C7.46943359 25.17987061 7.59511719 26.41052246 7.72460938 27.6784668 C7.95657666 30.47626373 8.05585531 33.1955979 8 36 C6.125 36.625 6.125 36.625 4 37 C1.40379103 34.40379103 1.62716369 33.0558334 1.3671875 29.43359375 C1.28339844 28.30759766 1.19960938 27.18160156 1.11328125 26.02148438 C1.03464844 24.83876953 0.95601563 23.65605469 0.875 22.4375 C0.78863281 21.28185547 0.70226562 20.12621094 0.61328125 18.93554688 C0.16045001 12.60669126 -0.09479227 6.34431103 0 0 Z " fill="#2C2622" transform="translate(384,402)"/>
<path d="M0 0 C1.99954746 -0.04254356 4.00041636 -0.04080783 6 0 C7.89488952 1.89488952 7.18019112 4.57139146 7.23046875 7.08984375 C7 9 7 9 5 11 C3.35 11 1.7 11 0 11 C0 7.37 0 3.74 0 0 Z " fill="#E9C01B" transform="translate(228,422)"/>
<path d="M0 0 C1.485 0.99 1.485 0.99 3 2 C3.6875 5.625 3.6875 5.625 4 9 C2.35 9 0.7 9 -1 9 C-0.67 6.03 -0.34 3.06 0 0 Z " fill="#DEB71E" transform="translate(357,419)"/>
<path d="M0 0 C0.33 0 0.66 0 1 0 C2.19088986 5.38027025 3.2919519 10.45291384 3 16 C2.01 15.67 1.02 15.34 0 15 C0 10.05 0 5.1 0 0 Z " fill="#CFAB23" transform="translate(390,407)"/>
<path d="" fill="#231F20" transform="translate(0,0)"/>
<path d="" fill="#231F20" transform="translate(0,0)"/>
<path d="" fill="#231F20" transform="translate(0,0)"/>
</svg>
